/* XPM */
static char *d77121486cbe47a6e17b0cc49c142eb96EqGNJvZSLzJTRGB[] = {
/* columns rows colors chars-per-pixel */
"32 32 8 1 ",
"  c None",
". c #2E222F",
"X c #FDD7C3",
"o c #E8C6B4",
"O c #FF7171",
"+ c #D8B6A4",
"@ c #AE2334",
"# c #E83B3B",
/* pixels */
"                                ",
"                                ",
"                                ",
"                                ",
"                                ",
"                                ",
"                                ",
"                                ",
"                                ",
"             ......             ",
"            .XXXXXX.            ",
"           .ooooooXX.           ",
"           .XOXXOXoo.           ",
"           .OXXOX++X.           ",
"          .XXOX++@@X.           ",
"          .OX++@@##X.           ",
"          .++@@##XXX.           ",
"          .@@##XX##+.           ",
"          .##XX##@@.            ",
"          .XX##@@..             ",
"          .##@@..               ",
"          .@@..                 ",
"           ..                   ",
"                                ",
"                                ",
"                                ",
"                                ",
"                                ",
"                                ",
"                                ",
"                                ",
"                                "
};
