/* XPM */
static char *_bb61305d86c4a20d29409cc2f2734ectLI6ZZJUApUxyEWU[] = {
/* columns rows colors chars-per-pixel */
"32 32 8 1 ",
"  c #A0E963",
". c #5EC750",
"X c #33984B",
"o c #41A84C",
"O c #D3FC7E",
"+ c #5AC54F",
"@ c #99E65F",
"# c None",
/* pixels */
" .XXXXXXooooO+oOO..@@XXXXoX++O++",
"@@XXXXXXooooooXXX..@XXXoooo+OO.+",
"@..XXXXXooooooXXXXOOXXXooo++O+++",
"...Xo@XXX#ooooXXXXXXXX#oooo#@O++",
"....@@XXXOoooXXXXXXXXOoooo+#+++O",
"X....XOXXXXooXXXXXXXXXooooo++++O",
"OOO...OXXXXoXXXXXXXXXXXXoooo+OOX",
"+OOOXXXXXXXXXXXXXoXXXXXXoXXXOOO.",
"++o#XXXXXXXXXXXXXXXXXXXXXXXX....",
"++oXXXXXXXXXXXXXXXXXXXXXXXXXO...",
"##ooXXXXXXXXXXXXXXXXXXXXXXXXXX@o",
"+ooooXXXXXXXXXXXXXXXXXXXXXOOOX@X",
"ooooooXXXXXXXXXXXXXXXXXXXXXOOOOO",
"oooooooXXXXXXXXXXXXXXXXXXXXOOOOO",
"oo#oooXXXXXXXXXXXXXXXXXXXXXOOXOO",
"XoXOOXXXXXXXXXXXXXXXXXXXXXXXX#OO",
"XXXXXXXXXXXXXXXXXXXXXXXXXXXooOOO",
"XXXXXXXXoXXXXXXXXXXXXXXXXXXXoOOO",
"@@@OXXXXXXXXXXXXXXXXXXXXXXXoOOOO",
"o@X.XXXXXXXXXXXXXXXXXXXXXXOOOO##",
"....XXXXXXXXXXXXXXXXXXXXXOOOXoO+",
"....XXXXXXXoXoXXXXXXXXXXXXOX#oOO",
".OOOXXXoXooooooXXXXXXXXOOOXOOOOO",
"XOO+oooooooXXXXXXXXXXXXXOOOOOOOO",
"O++++oooooXXXXXXXXXXXXOOOOXO...X",
"O+++#+ooooOOXXXXXXXXXXOO@@@@..@ ",
"++O@#oooo#XXXXX..Ooooo#OO@@@@@@@",
"+++O++oooXXXOO..OO+O+O  OOXXX@@@",
"+.OO+ooooXXX@...X++++OO   OXXX@@",
"++O++XoXXXX@@..OO++O++OO    X+  ",
"++++++# XXXo@..OO++#+++o#       ",
"+++++## XXXXX..OO++@O+++###     "
};
