/* XPM */
static char *bdd522c43ec44cf6b1ed6f9903c2c707aUMw1nuDnzqKzj6E[] = {
/* columns rows colors chars-per-pixel */
"32 32 4 1 ",
"  c #3C425F",
". c #283A58",
"X c #514C68",
"o c #213452",
/* pixels */
"   .XX     .XX     .XX     .XX  ",
"   oX      oX      oX      oX   ",
"   o       o       o       o    ",
"oooooo..oooooo..oooooo..oooooo..",
"X     .XX     .XX     .XX     .X",
"      oX      oX      oX      oX",
"      o       o       o       o ",
"ooo..oooooo..oooooo..oooooo..ooo",
"   .XX     .XX     .XX     .XX  ",
"   oX      oX      oX      oX   ",
"   o       o       o       o    ",
"oooooo..oooooo..oooooo..oooooo..",
"X     .XX     .XX     .XX     .X",
"      oX      oX      oX      oX",
"      o       o       o       o ",
"ooo..oooooo..oooooo..oooooo..ooo",
"   .XX     .XX     .XX     .XX  ",
"   oX      oX      oX      oX   ",
"   o       o       o       o    ",
"oooooo..oooooo..oooooo..oooooo..",
"X     .XX     .XX     .XX     .X",
"      oX      oX      oX      oX",
"      o       o       o       o ",
"ooo..oooooo..oooooo..oooooo..ooo",
"   .XX     .XX     .XX     .XX  ",
"   oX      oX      oX      oX   ",
"   o       o       o       o    ",
"oooooo..oooooo..oooooo..oooooo..",
"X     .XX     .XX     .XX     .X",
"      oX      oX      oX      oX",
"      o       o       o       o ",
"ooo..oooooo..oooooo..oooooo..ooo"
};
