/* XPM */
static char *f17b45ab6efa4b04a1a2e3ee3571e97f3xRJy6gDU333LY6u[] = {
/* columns rows colors chars-per-pixel */
"32 32 8 1 ",
"  c None",
". c #612128",
"X c #341014",
"o c #8E7B63",
"O c #FF1831",
"+ c #BDAB94",
"@ c #FBE9D1",
"# c #2B0D10",
/* pixels */
"     .....................      ",
"    .............XXXXX.....     ",
"    ........XXXXXXXXXXXX...     ",
"    ......XXXXXXXXXXXXXXXX.     ",
"     ...XXX.XX..X.XXXX.XXX.     ",
"      .XXXX..XX..XX....XXX      ",
"          XXXoooX..XXXXX        ",
"            ooOOoXoOO           ",
"            ++OO+o+OO           ",
"            ++++++++++          ",
"          ++++@+@+@++++         ",
"         ++++#@#@#@#++++        ",
"       ++++++#######++o++       ",
"      +++++o+##@####++oo++      ",
"      o+++oo++#@@#@#++oo++      ",
"     oo++oo+++++++++++ oo+      ",
"     oo+o.o+++++++++++ oo++     ",
"    ..ooo.X+++++++++++ XXo.     ",
"    X..o.o.+++++++++++ XX..     ",
"     X.X.Xo++++++++++++ XX      ",
"      XXX .++++++++++++         ",
"      . . ++++++++++++++        ",
"          ++++++++++++++        ",
"          ++++++++++++++        ",
"          ++++++++++++oo        ",
"          oooo+++++++oo         ",
"          +++ooo+++ooo          ",
"          ++++ooooooooo         ",
"          ++++++oooooooo        ",
"          +++++ooooooooo        ",
"          ++++oooooooooo        ",
"          +++oo     oo++        "
};
