/* XPM */
static char *_26205918bfa4bb2cf32302a91d39a3dpMdV9n2u7k2QzVlz[] = {
/* columns rows colors chars-per-pixel */
"32 32 9 1 ",
"  c #464866",
". c #454A62",
"X c #555682",
"o c #363A4E",
"O c #383853",
"+ c #33344D",
"@ c #292A3F",
"# c #41455D",
"$ c #1B1B2B",
/* pixels */
"                                ",
"     .                          ",
"                                ",
"                                ",
"XXXXXXXXXXXXXoXXXXXoXXXXXXXOXXXX",
"+++  @    +++++  ++++++    @  ++",
"+++++@+++++++++++++++++++++@++++",
"+++++@+++++++++++++++++++++@++++",
"+++++@+++++++@+++++++++++++@++++",
"@@@@@@+++@@@@@+++++@@@@@@@@@@@@@",
"+   ++++++   @+++++@#          +",
"+++++ +++++++@+  ++@ +++++++++++",
"+++++@+++ +++@+++ +@++++++++++++",
"++++++++++ ++@+++++@++++++++ +++",
"++++++@@@@+++@+++++@++++++++@+@@",
"@@@@+@@@@@@@@@@@@@@@@@@@@@@@@@@@",
"@@@@+@@@@@@@@@+++++@@@@@@+++++@@",
"@@@@@@@@@@@@@@+@@@@@@@@@@@@@@@@@",
"@@@@@@@+@@@@@@@@@@@@@@++@@@@@@@@",
"@@@@@@@$@@@@@@@@@@@@@+@@@@@@@@@@",
"@@@@@@@@@@@@@@@@@@@@@@@@@@@@@@@@",
"@@@@$@@@@@$$$$$@@@@@$$$$$$$$@@$$",
"@@@@$@@@@@+++$+@@@@@++++++@$@@++",
"@@+@$@@@@@@@@$@@@@@@@@@@@@+$@@@@",
"@@$@$@@@@@@@@$@@@@@@@@@@@@@$@@@@",
"@@@@$@@@++@@@$@@@@@@@@@@@@@$@@@@",
"@$$$$@@@@@+@@$$$$$$$$$@@$$$$$$$$",
"@++$@@@@@@@@@$+++++$@@@@@@@$++++",
"@@@@@@@@@@@@@$@@@@@@@@@@@@@@@@@@",
"@@@@@@@@@@@@@@@@@@@@@@@@@@@@@@@@",
"@@@@@@@@@@@@@@@@@@@@@@@@@@@@@@@@",
"$$$$$$$$$$$$$$@@@@@@@$$$$$$$$$$$"
};
